<?xml version="1.0" encoding="utf-8"?>
<!-- Generator: Adobe Illustrator 19.2.1, SVG Export Plug-In . SVG Version: 6.00 Build 0)  -->
<svg version="1.1" id="Layer_1" xmlns="http://www.w3.org/2000/svg" xmlns:xlink="http://www.w3.org/1999/xlink" x="0px" y="0px"
	 viewBox="0 0 197 172.2" style="enable-background:new 0 0 197 172.2;" xml:space="preserve">
<style type="text/css">
	.st0{fill:#166DB1;}
</style>
<path class="st0" d="M36.4,77.2c0-17.2,5.8-33.1,15.5-45.8C35.2,45.2,24.6,66.2,24.6,89.6c0,41.7,33.8,75.5,75.5,75.5
	c24.5,0,46.2-11.7,60-29.7c-13.1,10.8-29.9,17.4-48.2,17.4C70.2,152.7,36.4,118.9,36.4,77.2z"/>
<path class="st0" d="M70.6,59.7c0-13.6,4.6-26.2,12.3-36.2c-13.2,11-21.6,27.5-21.6,46c0,33,26.7,59.7,59.7,59.7
	c19.4,0,36.6-9.2,47.5-23.5c-10.3,8.6-23.6,13.7-38.1,13.7C97.4,119.5,70.6,92.7,70.6,59.7z"/>
<path class="st0" d="M103.9,46.2c0-9.3,3.1-17.8,8.3-24.7c-9,7.5-14.7,18.7-14.7,31.3c0,22.5,18.2,40.7,40.7,40.7
	c13.2,0,24.9-6.3,32.3-16c-7,5.8-16.1,9.3-25.9,9.3C122.1,86.9,103.9,68.7,103.9,46.2z"/>
</svg>
